<svg xmlns="http://www.w3.org/2000/svg" xmlns:xlink="http://www.w3.org/1999/xlink" width="1080" zoomAndPan="magnify" viewBox="0 0 810 809.999993" height="1080" preserveAspectRatio="xMidYMid meet" version="1.2"><defs><clipPath id="ef44658400"><path d="M 17.601562 224 L 790 224 L 790 611 L 17.601562 611 Z M 17.601562 224 "/></clipPath></defs><g id="40b7c4430d"><g clip-rule="nonzero" clip-path="url(#ef44658400)"><path style=" stroke:none;fill-rule:nonzero;fill:#caeae5;fill-opacity:1;" d="M 789.117188 324.894531 C 789.117188 351.308594 788.433594 377.722656 789.117188 404.140625 C 789.800781 419.378906 783.992188 424.121094 769.292969 423.105469 C 754.59375 422.089844 739.898438 423.105469 724.859375 423.105469 C 705.375 423.105469 689.992188 430.550781 677.34375 445.113281 C 634.960938 492.863281 592.574219 540.277344 549.851562 587.6875 C 538.230469 600.554688 522.847656 607.328125 504.730469 608.007812 C 448.675781 609.359375 442.519531 605.296875 444.230469 549.417969 C 445.253906 513.523438 444.230469 477.285156 444.574219 441.390625 C 444.574219 427.167969 439.445312 422.089844 425.433594 423.105469 C 406.632812 424.121094 391.933594 431.230469 379.628906 445.113281 C 338.609375 491.511719 296.910156 537.90625 255.550781 583.960938 C 235.726562 605.972656 193.339844 617.148438 166.339844 606.992188 C 153.007812 601.910156 146.511719 591.75 146.855469 576.851562 C 147.539062 532.824219 146.855469 489.140625 146.855469 445.113281 C 146.855469 424.457031 146.171875 423.441406 124.296875 423.441406 C 94.558594 423.441406 65.160156 422.765625 35.765625 423.441406 C 21.410156 423.78125 17.308594 418.699219 17.648438 404.816406 C 18.675781 370.953125 17.648438 337.425781 17.992188 303.558594 C 18.332031 260.550781 52.515625 226.6875 95.582031 226.347656 C 114.382812 226.347656 133.183594 227.363281 151.980469 226.007812 C 166.339844 224.992188 168.730469 230.75 168.730469 243.28125 C 168.046875 288.320312 168.730469 333.359375 168.730469 378.402344 C 168.730469 386.867188 168.730469 395.332031 176.933594 401.089844 C 187.53125 408.878906 195.734375 405.15625 203.597656 396.347656 C 238.117188 357.746094 274.691406 320.492188 306.824219 279.855469 C 346.8125 230.074219 399.453125 221.605469 457.902344 226.007812 C 468.839844 227.023438 465.765625 235.492188 466.109375 241.25 C 466.109375 284.59375 466.109375 327.941406 466.109375 371.289062 C 466.109375 376.371094 466.109375 381.449219 466.449219 386.527344 C 467.472656 394.996094 471.234375 401.765625 479.777344 404.476562 C 487.984375 406.847656 494.820312 404.140625 500.972656 397.363281 C 536.863281 356.730469 573.777344 317.105469 609.324219 276.128906 C 639.0625 241.925781 674.953125 223.976562 720.757812 226.007812 C 738.1875 226.6875 755.960938 226.6875 773.738281 226.007812 C 785.015625 225.671875 788.777344 229.734375 788.777344 240.570312 C 788.433594 268.679688 788.777344 296.785156 788.777344 324.894531 Z M 789.117188 324.894531 "/></g></g></svg>