<svg width="60" height="60" viewBox="0 0 60 60" fill="none" xmlns="http://www.w3.org/2000/svg">
<rect width="60" height="60" rx="30" fill="#0E0C15"/>
<path d="M25.7884 18.9091C21.3677 17.6432 16.3622 21.5828 14.6089 27.7087C12.8555 33.8337 15.0181 39.8249 19.4388 41.0909C23.8595 42.3568 28.865 38.4171 30.6184 32.2913C32.3717 26.1663 30.2091 20.175 25.7884 18.9091ZM25.0436 24.663C24.939 25.9308 23.8259 26.8738 22.5581 26.7683C21.2904 26.6638 20.3473 25.5506 20.4528 24.2829C20.5574 23.0152 21.6705 22.0721 22.9383 22.1776C24.206 22.2822 25.1491 23.3953 25.0436 24.663Z" fill="#4AFC38"/>
<path d="M41.7533 23.6945C38.3011 22.7068 34.3933 25.7825 33.0246 30.5652C31.656 35.3478 33.3438 40.0259 36.796 41.0135C40.2482 42.0021 44.156 38.9255 45.5247 34.1428C46.8933 29.3602 45.2055 24.6821 41.7533 23.6945ZM41.2449 29.231C41.1403 30.4988 40.0272 31.4418 38.7595 31.3363C37.4917 31.2318 36.5487 30.1186 36.6541 28.8509C36.7596 27.5832 37.8719 26.6401 39.1396 26.7456C40.4073 26.8502 41.3504 27.9633 41.2449 29.231Z" fill="#4AFC38"/>
</svg>