<svg xmlns="http://www.w3.org/2000/svg" xmlns:xlink="http://www.w3.org/1999/xlink" width="1080" zoomAndPan="magnify" viewBox="0 0 810 809.999993" height="1080" preserveAspectRatio="xMidYMid meet" version="1.2"><defs><clipPath id="3f4731b6a7"><path d="M 2.242188 4.160156 L 786 4.160156 L 786 631 L 2.242188 631 Z M 2.242188 4.160156 "/></clipPath><clipPath id="9a2baf454c"><path d="M 167 376 L 805 376 L 805 805.910156 L 167 805.910156 Z M 167 376 "/></clipPath></defs><g id="88b406bdc5"><g clip-rule="nonzero" clip-path="url(#3f4731b6a7)"><path style=" stroke:none;fill-rule:nonzero;fill:#ffffff;fill-opacity:1;" d="M 169.039062 384.988281 C 169.039062 380.507812 169.925781 376.070312 171.644531 371.933594 C 173.367188 367.796875 175.886719 364.039062 179.0625 360.878906 C 182.238281 357.71875 186.003906 355.21875 190.152344 353.515625 C 194.296875 351.816406 198.734375 350.953125 203.214844 350.972656 L 259.875 351.160156 C 268.90625 351.160156 277.570312 354.746094 283.960938 361.136719 C 290.347656 367.527344 293.9375 376.191406 293.9375 385.226562 L 293.9375 599.503906 C 300.316406 597.613281 308.484375 595.59375 317.472656 593.480469 C 323.699219 592.015625 329.246094 588.488281 333.21875 583.472656 C 337.191406 578.460938 339.351562 572.25 339.355469 565.855469 L 339.355469 300.074219 C 339.355469 291.039062 342.941406 282.375 349.332031 275.984375 C 355.71875 269.59375 364.382812 266.003906 373.417969 266.003906 L 430.246094 266.003906 C 439.28125 266.003906 447.945312 269.59375 454.332031 275.984375 C 460.722656 282.375 464.308594 291.039062 464.308594 300.074219 L 464.308594 546.761719 C 464.308594 546.761719 478.527344 541.007812 492.367188 535.160156 C 497.511719 532.984375 501.902344 529.34375 504.988281 524.691406 C 508.074219 520.035156 509.722656 514.574219 509.726562 508.992188 L 509.726562 214.90625 C 509.726562 205.871094 513.316406 197.207031 519.703125 190.820312 C 526.089844 184.429688 534.75 180.839844 543.785156 180.839844 L 600.554688 180.839844 C 609.582031 180.847656 618.238281 184.441406 624.617188 190.828125 C 631 197.21875 634.585938 205.878906 634.585938 214.90625 L 634.585938 457.074219 C 683.800781 421.402344 733.683594 378.492188 773.269531 326.898438 C 779.011719 319.410156 782.808594 310.617188 784.332031 301.300781 C 785.851562 291.988281 785.035156 282.441406 781.976562 273.515625 C 763.648438 220.792969 734.523438 172.476562 696.453125 131.660156 C 658.390625 90.839844 612.222656 58.417969 560.90625 36.46875 C 509.59375 14.519531 454.261719 3.523438 398.457031 4.1875 C 342.648438 4.851562 287.597656 17.15625 236.816406 40.320312 C 186.039062 63.484375 140.65625 96.996094 103.570312 138.707031 C 66.488281 180.417969 38.515625 229.414062 21.449219 282.554688 C 4.386719 335.699219 -1.398438 391.820312 4.464844 447.328125 C 10.332031 502.835938 27.71875 556.507812 55.515625 604.90625 C 60.359375 613.257812 67.484375 620.050781 76.054688 624.492188 C 84.625 628.929688 94.285156 630.832031 103.898438 629.972656 C 114.636719 629.027344 128.007812 627.691406 143.90625 625.824219 C 150.824219 625.039062 157.210938 621.734375 161.851562 616.542969 C 166.492188 611.347656 169.058594 604.628906 169.066406 597.664062 L 169.066406 384.988281 "/></g><g clip-rule="nonzero" clip-path="url(#9a2baf454c)"><path style=" stroke:none;fill-rule:nonzero;fill:#0ec9ac;fill-opacity:1;" d="M 167.828125 728.636719 C 227.667969 772.167969 298.386719 798.300781 372.15625 804.140625 C 445.925781 809.976562 519.875 795.292969 585.816406 761.707031 C 651.757812 728.125 707.128906 676.945312 745.792969 613.847656 C 784.460938 550.746094 804.917969 478.175781 804.90625 404.167969 C 804.90625 394.90625 804.472656 385.792969 803.859375 376.707031 C 657.296875 595.316406 386.6875 697.515625 167.828125 728.636719 Z M 167.828125 728.636719 "/></g></g></svg>