<svg xmlns="http://www.w3.org/2000/svg" xmlns:xlink="http://www.w3.org/1999/xlink" width="1080" zoomAndPan="magnify" viewBox="0 0 810 809.999993" height="1080" preserveAspectRatio="xMidYMid meet" version="1.2"><defs><clipPath id="19c2ad5e93"><path d="M 9 117 L 799 117 L 799 697 L 9 697 Z M 9 117 "/></clipPath><clipPath id="e832f74924"><path d="M 568.648438 135.34375 C 600.554688 109.3125 656.789062 108.976562 706.523438 149.300781 C 755.925781 189.359375 798.476562 269.832031 798.476562 403.160156 C 798.476562 534.910156 758.152344 620.027344 709.246094 662.898438 C 662.023438 704.289062 607.136719 706.601562 568.527344 675.503906 L 564.84375 672.394531 L 564.808594 672.363281 L 561.710938 669.570312 C 546.351562 655.328125 533.226562 637.414062 520.617188 617.695312 C 513.902344 607.199219 507.417969 596.335938 500.828125 585.324219 C 494.261719 574.359375 487.589844 563.25 480.617188 552.5 C 453.695312 511.015625 420.925781 472.65625 366.371094 463.648438 L 361.019531 462.875 L 361.011719 462.871094 L 357.636719 462.488281 C 323 458.867188 295.609375 467.5 272.957031 482.753906 C 249.933594 498.261719 232.167969 520.386719 216.574219 541.984375 C 200.59375 564.121094 187.257812 585.070312 172.105469 601.078125 C 157.269531 616.75 142.195312 625.957031 123.660156 625.960938 C 77.832031 625.960938 49.359375 593.078125 31.9375 547.070312 C 14.578125 501.222656 9.632812 445.460938 9.632812 407.269531 C 9.632812 368.285156 15.144531 323.019531 30.976562 287.886719 C 46.652344 253.097656 71.582031 229.65625 110.761719 229.65625 C 156.8125 229.65625 181.078125 263.417969 212.578125 302.25 C 242.761719 339.460938 278.570312 378.964844 346.054688 375.957031 L 349.289062 375.777344 L 349.339844 375.777344 C 418.730469 371.015625 453.632812 324.578125 481 274.0625 C 487.851562 261.417969 494.339844 248.3125 500.765625 235.441406 C 507.226562 222.503906 513.640625 209.769531 520.480469 197.554688 C 534.175781 173.097656 549.21875 151.390625 568.648438 135.34375 Z M 568.648438 135.34375 "/></clipPath><linearGradient x1="45.566381" gradientTransform="matrix(7.696063,0,0,7.692857,0.0112205,0.96956)" y1="92.347199" x2="46.675615" gradientUnits="userSpaceOnUse" y2="13.239612" id="ef51abff2f"><stop style="stop-color:#97fccb;stop-opacity:1;" offset="0"/><stop style="stop-color:#97fccb;stop-opacity:1;" offset="0.015625"/><stop style="stop-color:#97fccc;stop-opacity:1;" offset="0.0181646"/><stop style="stop-color:#97fccc;stop-opacity:1;" offset="0.03125"/><stop style="stop-color:#97fccd;stop-opacity:1;" offset="0.046875"/><stop style="stop-color:#97fccd;stop-opacity:1;" offset="0.0625"/><stop style="stop-color:#97fcce;stop-opacity:1;" offset="0.078125"/><stop style="stop-color:#97fccf;stop-opacity:1;" offset="0.09375"/><stop style="stop-color:#97fcd0;stop-opacity:1;" offset="0.109375"/><stop style="stop-color:#97fcd1;stop-opacity:1;" offset="0.125"/><stop style="stop-color:#97fcd1;stop-opacity:1;" offset="0.140625"/><stop style="stop-color:#97fcd2;stop-opacity:1;" offset="0.15625"/><stop style="stop-color:#97fcd3;stop-opacity:1;" offset="0.171875"/><stop style="stop-color:#97fcd4;stop-opacity:1;" offset="0.1875"/><stop style="stop-color:#97fcd4;stop-opacity:1;" offset="0.203125"/><stop style="stop-color:#97fcd5;stop-opacity:1;" offset="0.21875"/><stop style="stop-color:#97fcd6;stop-opacity:1;" offset="0.234375"/><stop style="stop-color:#97fcd7;stop-opacity:1;" offset="0.25"/><stop style="stop-color:#97fcd8;stop-opacity:1;" offset="0.265625"/><stop style="stop-color:#97fcd8;stop-opacity:1;" offset="0.28125"/><stop style="stop-color:#97fcd9;stop-opacity:1;" offset="0.296875"/><stop style="stop-color:#97fcda;stop-opacity:1;" offset="0.3125"/><stop style="stop-color:#97fcdb;stop-opacity:1;" offset="0.328125"/><stop style="stop-color:#97fcdb;stop-opacity:1;" offset="0.34375"/><stop style="stop-color:#97fcdc;stop-opacity:1;" offset="0.359375"/><stop style="stop-color:#97fcdd;stop-opacity:1;" offset="0.375"/><stop style="stop-color:#97fcde;stop-opacity:1;" offset="0.390625"/><stop style="stop-color:#97fcde;stop-opacity:1;" offset="0.40625"/><stop style="stop-color:#97fcdf;stop-opacity:1;" offset="0.421875"/><stop style="stop-color:#97fce0;stop-opacity:1;" offset="0.4375"/><stop style="stop-color:#97fce1;stop-opacity:1;" offset="0.453125"/><stop style="stop-color:#97fce2;stop-opacity:1;" offset="0.46875"/><stop style="stop-color:#97fce2;stop-opacity:1;" offset="0.484375"/><stop style="stop-color:#97fbe3;stop-opacity:1;" offset="0.5"/><stop style="stop-color:#97fbe4;stop-opacity:1;" offset="0.515625"/><stop style="stop-color:#97fbe5;stop-opacity:1;" offset="0.53125"/><stop style="stop-color:#97fbe5;stop-opacity:1;" offset="0.546875"/><stop style="stop-color:#97fbe6;stop-opacity:1;" offset="0.5625"/><stop style="stop-color:#97fbe7;stop-opacity:1;" offset="0.578125"/><stop style="stop-color:#97fbe8;stop-opacity:1;" offset="0.59375"/><stop style="stop-color:#97fbe9;stop-opacity:1;" offset="0.609375"/><stop style="stop-color:#97fbe9;stop-opacity:1;" offset="0.625"/><stop style="stop-color:#97fbea;stop-opacity:1;" offset="0.640625"/><stop style="stop-color:#97fbeb;stop-opacity:1;" offset="0.65625"/><stop style="stop-color:#97fbec;stop-opacity:1;" offset="0.671875"/><stop style="stop-color:#97fbec;stop-opacity:1;" offset="0.6875"/><stop style="stop-color:#97fbed;stop-opacity:1;" offset="0.703125"/><stop style="stop-color:#97fbee;stop-opacity:1;" offset="0.71875"/><stop style="stop-color:#97fbef;stop-opacity:1;" offset="0.734375"/><stop style="stop-color:#97fbf0;stop-opacity:1;" offset="0.75"/><stop style="stop-color:#97fbf0;stop-opacity:1;" offset="0.765625"/><stop style="stop-color:#97fbf1;stop-opacity:1;" offset="0.78125"/><stop style="stop-color:#97fbf2;stop-opacity:1;" offset="0.796875"/><stop style="stop-color:#97fbf3;stop-opacity:1;" offset="0.8125"/><stop style="stop-color:#97fbf3;stop-opacity:1;" offset="0.828125"/><stop style="stop-color:#97fbf4;stop-opacity:1;" offset="0.84375"/><stop style="stop-color:#97fbf5;stop-opacity:1;" offset="0.859375"/><stop style="stop-color:#97fbf6;stop-opacity:1;" offset="0.875"/><stop style="stop-color:#97fbf7;stop-opacity:1;" offset="0.890625"/><stop style="stop-color:#97fbf7;stop-opacity:1;" offset="0.90625"/><stop style="stop-color:#97fbf8;stop-opacity:1;" offset="0.921875"/><stop style="stop-color:#97fbf9;stop-opacity:1;" offset="0.9375"/><stop style="stop-color:#97fbfa;stop-opacity:1;" offset="0.953125"/><stop style="stop-color:#97fbfa;stop-opacity:1;" offset="0.96875"/><stop style="stop-color:#97fbfb;stop-opacity:1;" offset="0.981835"/><stop style="stop-color:#97fbfc;stop-opacity:1;" offset="0.984375"/><stop style="stop-color:#97fbfc;stop-opacity:1;" offset="1"/></linearGradient><clipPath id="c0c7583f9e"><path d="M 519 9 L 749 9 L 749 808.71875 L 519 808.71875 Z M 519 9 "/></clipPath></defs><g id="a80a31cac2"><g clip-rule="nonzero" clip-path="url(#19c2ad5e93)"><g clip-rule="nonzero" clip-path="url(#e832f74924)"><path style=" stroke:none;fill-rule:nonzero;fill:url(#ef51abff2f);" d="M 9.632812 108.976562 L 9.632812 706.601562 L 798.476562 706.601562 L 798.476562 108.976562 Z M 9.632812 108.976562 "/></g></g><path style="fill:none;stroke-width:2.5;stroke-linecap:butt;stroke-linejoin:miter;stroke:#000000;stroke-opacity:1;stroke-miterlimit:4;" d="M 73.886762 17.467397 C 78.032551 14.083576 85.339452 14.039907 91.801765 19.281681 C 98.220936 24.488926 103.749838 34.949624 103.749838 52.281042 C 103.749838 69.407318 98.510247 80.471762 92.155538 86.044606 C 86.019588 91.425003 78.887797 91.725606 73.871028 87.6832 L 73.392394 87.27901 L 73.387826 87.274948 L 72.985327 86.911888 C 70.989583 85.060536 69.284166 82.731874 67.645747 80.168619 C 66.773243 78.804225 65.930686 77.392099 65.074424 75.960678 C 64.221208 74.53535 63.354288 73.091235 62.448285 71.693834 C 58.950149 66.301251 54.692189 61.314889 47.603541 60.143957 L 46.908177 60.043417 L 46.907162 60.042909 L 46.468626 59.993147 C 41.96805 59.522439 38.409007 60.644624 35.465639 62.62749 C 32.474053 64.643362 30.165649 67.519406 28.13945 70.326901 C 26.063003 73.204469 24.330178 75.927673 22.361334 78.008539 C 20.433604 80.045738 18.474911 81.242566 16.066517 81.243074 C 10.111768 81.243074 6.412129 76.968614 4.148391 70.988026 C 1.892773 65.028256 1.250197 57.779751 1.250197 52.815223 C 1.250197 47.747616 1.96637 41.863505 4.02353 37.296566 C 6.060387 32.774311 9.299665 29.727146 14.390538 29.727146 C 20.374218 29.727146 23.52721 34.115856 27.620212 39.163659 C 31.542164 44.000735 36.195009 49.135876 44.963697 48.744888 L 45.38396 48.721531 L 45.390559 48.721531 C 54.406938 48.102551 58.942028 42.066108 62.498026 35.499546 C 63.388295 33.855874 64.231359 32.152285 65.066303 30.479162 C 65.905815 28.797408 66.739237 27.142057 67.627982 25.554241 C 69.407504 22.375054 71.362136 19.553342 73.886762 17.467397 Z M 73.886762 17.467397 " transform="matrix(7.696064,0,0,7.692857,0.0112205,0.969557)"/><path style="fill:none;stroke-width:2.5;stroke-linecap:butt;stroke-linejoin:miter;stroke:#000000;stroke-opacity:1;stroke-miterlimit:4;" d="M 9.000202 31.000141 C 10.701558 31.729307 13.958093 32.749938 19.500192 31.000141 " transform="matrix(7.696064,0,0,7.692857,0.0112205,0.969557)"/><path style="fill:none;stroke-width:2.5;stroke-linecap:butt;stroke-linejoin:miter;stroke:#000000;stroke-opacity:1;stroke-miterlimit:4;" d="M 3.645902 35.729061 C 8.385541 37.551977 16.041646 39.010311 25.885356 35.729061 " transform="matrix(7.696064,0,0,7.692857,0.0112205,0.969557)"/><path style="fill:none;stroke-width:2.5;stroke-linecap:butt;stroke-linejoin:miter;stroke:#000000;stroke-opacity:1;stroke-miterlimit:4;" d="M 1.82273 43.749894 C 6.684184 45.330093 18.520592 47.541459 26.979158 43.749894 C 28.605902 43.020727 32.892286 45.256974 33.499841 45.500198 " transform="matrix(7.696064,0,0,7.692857,0.0112205,0.969557)"/><path style="fill:none;stroke-width:2.5;stroke-linecap:butt;stroke-linejoin:miter;stroke:#000000;stroke-opacity:1;stroke-miterlimit:4;" d="M 0.728928 55.051977 C 6.927307 56.874893 18.593682 59.062393 26.979158 55.051977 C 38.658728 49.466438 55.425112 55.425192 59.42726 59.426977 C 62.708158 62.708227 82.031145 69.63531 103.906168 61.97906 " transform="matrix(7.696064,0,0,7.692857,0.0112205,0.969557)"/><path style="fill:none;stroke-width:2.5;stroke-linecap:butt;stroke-linejoin:miter;stroke:#000000;stroke-opacity:1;stroke-miterlimit:4;" d="M 31.718797 43.749894 C 32.326351 48.246252 33.17703 58.989781 31.718797 65.989476 " transform="matrix(7.696064,0,0,7.692857,0.0112205,0.969557)"/><path style="fill:none;stroke-width:2.5;stroke-linecap:butt;stroke-linejoin:miter;stroke:#000000;stroke-opacity:1;stroke-miterlimit:4;" d="M 44.114541 48.489477 L 44.114541 60.156143 " transform="matrix(7.696064,0,0,7.692857,0.0112205,0.969557)"/><path style="fill:none;stroke-width:2.5;stroke-linecap:butt;stroke-linejoin:miter;stroke:#000000;stroke-opacity:1;stroke-miterlimit:4;" d="M 53.593819 45.937394 C 52.743141 49.461868 51.551886 57.67718 53.593819 62.343643 " transform="matrix(7.696064,0,0,7.692857,0.0112205,0.969557)"/><path style="fill:none;stroke-width:2.5;stroke-linecap:butt;stroke-linejoin:miter;stroke:#000000;stroke-opacity:1;stroke-miterlimit:4;" d="M 64.53133 31.354061 C 62.465542 39.496252 59.572931 59.718948 64.53133 75.468643 " transform="matrix(7.696064,0,0,7.692857,0.0112205,0.969557)"/><path style="fill:none;stroke-width:2.5;stroke-linecap:butt;stroke-linejoin:miter;stroke:#000000;stroke-opacity:1;stroke-miterlimit:4;" d="M 81.302282 15.312395 C 78.628432 21.753536 71.093634 27.708228 71.093634 49.94781 C 71.093634 77.291559 74.937421 90.499834 81.500232 90.499834 " transform="matrix(7.696064,0,0,7.692857,0.0112205,0.969557)"/><g clip-rule="nonzero" clip-path="url(#c0c7583f9e)"><path style="fill:none;stroke-width:2.5;stroke-linecap:butt;stroke-linejoin:miter;stroke:#000000;stroke-opacity:1;stroke-miterlimit:4;" d="M 81.666714 15.312395 C 83.489378 22.361344 83.124947 39.302282 83.124947 50.676977 C 83.124947 64.895726 83.124947 88.229059 81.666714 91.145726 " transform="matrix(7.696064,0,0,7.692857,0.0112205,0.969557)"/></g><path style="fill:none;stroke-width:2.5;stroke-linecap:butt;stroke-linejoin:miter;stroke:#000000;stroke-opacity:1;stroke-miterlimit:4;" d="M 81.302282 15.312395 C 84.218749 15.312395 95.885631 32.083227 95.885631 49.583227 C 95.885631 68.906143 93.437646 90.499834 82.500135 90.499834 " transform="matrix(7.696064,0,0,7.692857,0.0112205,0.969557)"/><path style="fill:none;stroke-width:2.5;stroke-linecap:butt;stroke-linejoin:miter;stroke:#000000;stroke-opacity:1;stroke-miterlimit:4;" d="M 74.37504 16.770728 C 76.683951 18.107703 82.833097 19.979366 88.958388 16.770728 " transform="matrix(7.696064,0,0,7.692857,0.0112205,0.969557)"/><path style="fill:none;stroke-width:2.5;stroke-linecap:butt;stroke-linejoin:miter;stroke:#000000;stroke-opacity:1;stroke-miterlimit:4;" d="M 70.729202 20.051978 C 74.253732 21.632177 83.708139 23.844051 93.333088 20.051978 " transform="matrix(7.696064,0,0,7.692857,0.0112205,0.969557)"/><path style="fill:none;stroke-width:2.5;stroke-linecap:butt;stroke-linejoin:miter;stroke:#000000;stroke-opacity:1;stroke-miterlimit:4;" d="M 66.353995 26.979061 C 70.972326 29.409786 83.854317 32.812394 98.437666 26.979061 " transform="matrix(7.696064,0,0,7.692857,0.0112205,0.969557)"/><path style="fill:none;stroke-width:2.5;stroke-linecap:butt;stroke-linejoin:miter;stroke:#000000;stroke-opacity:1;stroke-miterlimit:4;" d="M 63.437528 36.458227 C 67.326489 39.496252 80.499822 43.749894 102.082995 36.458227 " transform="matrix(7.696064,0,0,7.692857,0.0112205,0.969557)"/><path style="fill:none;stroke-width:2.5;stroke-linecap:butt;stroke-linejoin:miter;stroke:#000000;stroke-opacity:1;stroke-miterlimit:4;" d="M 54.687621 44.843644 C 54.930744 48.003535 88.229017 53.958227 103.906168 47.395727 " transform="matrix(7.696064,0,0,7.692857,0.0112205,0.969557)"/><path style="fill:none;stroke-width:2.5;stroke-linecap:butt;stroke-linejoin:miter;stroke:#000000;stroke-opacity:1;stroke-miterlimit:4;" d="M 63.073097 70.364476 C 70.364771 73.403009 88.302107 77.656143 101.719071 70.364476 " transform="matrix(7.696064,0,0,7.692857,0.0112205,0.969557)"/><path style="fill:none;stroke-width:2.5;stroke-linecap:butt;stroke-linejoin:miter;stroke:#000000;stroke-opacity:1;stroke-miterlimit:4;" d="M 66.353995 78.749893 C 71.093634 81.423842 83.708139 84.916835 98.000145 78.500067 " transform="matrix(7.696064,0,0,7.692857,0.0112205,0.969557)"/><path style="fill:none;stroke-width:2.5;stroke-linecap:butt;stroke-linejoin:miter;stroke:#000000;stroke-opacity:1;stroke-miterlimit:4;" d="M 2.187669 65.989476 C 6.319245 68.298843 18.374921 71.093643 33.541461 63.801977 " transform="matrix(7.696064,0,0,7.692857,0.0112205,0.969557)"/><path style="fill:none;stroke-width:2.5;stroke-linecap:butt;stroke-linejoin:miter;stroke:#000000;stroke-opacity:1;stroke-miterlimit:4;" d="M 14.218982 29.166561 C 12.274501 33.420202 8.385541 44.333329 8.385541 53.958227 C 8.385541 65.989476 8.3023 80.999849 14.500172 80.999849 " transform="matrix(7.696064,0,0,7.692857,0.0112205,0.969557)"/><path style="fill:none;stroke-width:2.5;stroke-linecap:butt;stroke-linejoin:miter;stroke:#000000;stroke-opacity:1;stroke-miterlimit:4;" d="M 14.218982 29.531144 C 16.527893 33.176977 21.145717 43.093847 21.145717 53.593643 C 21.145717 66.718643 20.333106 80.999849 14.500172 80.999849 " transform="matrix(7.696064,0,0,7.692857,0.0112205,0.969557)"/></g></svg>